<?xml version="1.0" encoding="utf-8"?>
<!-- Generator: Adobe Illustrator 18.1.0, SVG Export Plug-In . SVG Version: 6.00 Build 0)  -->
<svg version="1.1" id="Layer_1" xmlns="http://www.w3.org/2000/svg" xmlns:xlink="http://www.w3.org/1999/xlink" x="0px" y="0px"
	 viewBox="0 0 281.3 13.3" enable-background="new 0 0 281.3 13.3" xml:space="preserve" preserveAspectRatio="none">
<path fill-rule="evenodd" clip-rule="evenodd" d="M171.9,13.5c0.3,0.7,1.8,0.3,2.7,0.4c-0.3,0.8-2.1,0.2-3.1,0.4
	C171.4,13.5,172.2,14.6,171.9,13.5z M42.4,14.4c0.5,0,1,0,1-0.4C43.1,13.6,42.3,13.6,42.4,14.4z M49.5,14.2c0.8,0.2,2.1,0.4,2.3-0.4
	C50.9,13.7,50.1,13.8,49.5,14.2z M146.3,14.2c0.6,0.5,3,0.9,2.9-0.4C148.6,14.2,146.9,13.6,146.3,14.2z M153.9,14.2
	c0.2,0.2,0.7,0.2,1.3,0.2C155.1,13.7,154.1,13.7,153.9,14.2z M156.2,14.4c1.1-0.3,2.6,0.7,2.5-0.4C157.3,14,156.7,13.6,156.2,14.4z
	 M134.1,14.2c0.6,0.5,2.2,1,2.9,0.2C136.2,14.1,134.8,14,134.1,14.2z M143.6,14.4c0.7,0.1,1.7-0.2,2.1,0.2
	C145.4,13.8,143.9,13.8,143.6,14.4z M179.7,14.4c1.2,0.3,3.6,0.9,4.4-0.2C183.1,14,180.4,13.6,179.7,14.4z M114,14.4
	c0,0.2,0,0.4,0,0.6c0.5,0,0.7-0.4,1-0.6C114.4,14.2,114.6,14.2,114,14.4z M124.7,14.8c0.5,0.1,0.8-0.1,0.8-0.4
	c-0.3-0.1-0.4-0.3-0.8-0.2C124.7,14.4,124.7,14.6,124.7,14.8z M191.2,14.6c-0.3-0.4-1.1-0.5-1.9-0.4C189.7,15,190.9,14.7,191.2,14.6
	z M196.3,14.6c0.5-0.1,0.5,0.4,1,0.2C197.4,14.1,196.3,13.9,196.3,14.6z M203.2,14.8c0.5-0.2,1.6,0.4,1.5-0.4
	C203.9,14.7,203.6,14.1,203.2,14.8z M133.7,13.7c0.7-0.5,3.1-0.9,2.3,0c1,0.3,0.4-0.9,1-0.8c0.2,0.5,1,0.5,1,1.3
	c-0.5,0-0.7-0.4-0.8,0.2c1.5,0.7,3.9-0.5,5.2,0c0.4-0.1,0-1,0.4-1c1.4,0.4,2.4-0.4,3.6-0.2c1.1-0.5,5.2,0.3,6.1-0.2
	c0,0.2,0,0.6,0.2,0.6c0.7-0.9,3.6-0.7,4.4-0.2c1.1-0.6,5.1-0.4,8-0.4c-0.5,0.9,0.8,0.3,1.5,0.2c-0.2,0-0.6,0-0.6-0.2
	c4.6,0.3,8.3,0.2,11.5,0.4c3,0.2,6.2-0.7,9-0.2c1.2,0.2,2.4-0.2,3.4,0.4c19.6-0.3,40.9,0.8,63.2,1.9c4.3,0.2,8.6,0.4,12.8-0.4
	c-1.4-0.6-3.7-0.2-4.6-1.3c1.3,0.5,2.7,0,3.6-0.6c7,0.4,9.5-5.5,16.4-5.9c-2.5-1.4-6.2-1.7-8.4-3.4c-25.9-3.4-52.6-2.3-78.7-3.6
	c-6.5-0.3-13.1,0.2-19.7,0c-20.9-0.7-42.3-0.1-64.2,0.4c-19,0.4-40.4-0.1-58.4,1c-2.5-0.6-6.1-0.2-9.9,0c-13.6,0.6-30.3,0-42,1.5
	c1.3,0.2,0.4,0.6,0.4,1.7C1,5.5,2.6,5.1,2.9,6C2,6,1.5,6.3,0.4,6.2C0.4,7.3,2.1,6.6,2.9,6.8c-0.1,0.7-1.1,0.4-1,1.3
	c1.3,0,1.8,1.8,4.2,1.3c0,0.8,0.2,0.6,0,1.3c7,0.1,13.5,1.4,20.2,1.9c3.9-0.6,10.3-0.4,16.4-0.2c0,0.5,0.2,0.7,0.6,0.6
	c-0.2-1.5,1.4,0.1,1.5-0.4c3.3,0.1,7.5-0.2,12.6,0.6c-1.1,0.1-2.4,0.6-3.1,0.4c0.2,0.6-0.4,0.6-0.2,1.3c0.7,0.1,0.5-0.7,1.3-0.6
	c-0.1,0.5,0.1,0.9,0.6,0.8c-0.1-0.5-0.4-0.8,0.4-0.8c-0.1,0.6-0.4,0.7,0.4,0.6c0.7,0.1-0.5-0.6,0.2-0.6c0.6,0.1,0.7,0.5,1.3,0.6
	c0.1-0.2,0.2-0.5,0.4-0.6c-0.1,0.6,0.4,0.4,0.6,0.6c0-0.5,0.2-0.7,0.6-0.6c0.2,0.2,0.1,0.8,0.6,0.6c-0.1-0.6,0.4-0.5,0.8-0.6
	c0.3,0.1,0,0.8,0.4,0.8c0.5-0.3-0.3-0.5,0.2-0.6c0.3,0.3,0.5,0.7,0.4-0.2c1.3,1.7,2.1-0.4,4.8,0c-0.1,0.3-0.3,0.4,0,0.6
	c1.4-0.6,2.4-0.9,2.9,0c0.7-0.4,1.4-0.9,2.1-0.2c0.2-0.2,0-0.6,0.8-0.6c0.5,1.2,2,0.1,2.7,0.8c0.3-0.2,0-1,0.6-0.8
	c0,0.3,0,0.7,0.4,0.6c1.4-1.6,3.6,0.4,4.4-0.6c0.3,0.1,0,0.8,0.4,0.8c0.1-0.5,0.7-0.6,1.5-0.8c0.4,0.7,1,0.1,1.7,0.6
	c0.3-0.9,1.7-0.7,2.3-0.2c2-1.4,4.9,0.1,6.9-0.8c0.2,0.2,0.1,0.8,0.6,0.6c0.3-1.4,2.8,0.4,3.6-0.6c0.4,1.5,2.2-1,3.1,0.6
	c-0.2-1.1,0.7-0.1,1.3-0.6c0,0.3,0,0.7,0.4,0.6c0.6-0.2,1.4-0.3,1.7-0.8c0.2,1.3,1.8-0.5,2.7,0.6c0-0.2,0-0.6,0.2-0.6
	c1,1.6,2.3-0.9,3.6,0.6c0.1-0.4-0.3-0.5,0-0.6c0.4,0.3,2.2,0,2.1,0.6c0.8,0.2,0.3-0.8,1-0.6c0.5,0.3,1,0.6,1.7,0.8
	c0.2-1.6,1.4,0.2,2.5-0.8c0.9,1.5,1.8,0.2,3.6,0c0.4,1.4-1.3,0.5-1.3,1.5c0.6-0.4,1.8,0.4,2.7-0.4c-0.6,0-0.5-0.6-0.8-0.8
	c0,0.2,0,0.6-0.2,0.6c0.1-0.3-0.2-1.1,0.2-1c0.8,0.4,0.9,0.3,1.7,0.6c0.1-0.4-0.3-0.5,0-0.6c1,0.1,2,1.1,1.9,0
	c0.4,0.1,0.6,0.4,0.8,0.6c0.1-0.4-0.3-0.5,0-0.6c0.6,0,0.5,0.8,1.3,0.6c0-0.5,1.1-1,1.5-0.4c-0.3,0-0.7,0-0.6,0.4
	c0.8,0.3,0.7-0.4,1-0.6c0.2,0.5,1.1,0.3,1.5,0.6C131.9,12.6,134.2,13.2,133.7,13.7z M140.9,12.9c0.3,1,1.4,0,1.5,1
	c-1.5-0.1-1.9-0.1-3.1,0.2c0-0.3,0-0.6,0-0.8C139.6,13.3,140.5,13.4,140.9,12.9z"/>
</svg>
